<?xml version="1.0" encoding="UTF-8" standalone="no"?>
<svg
   xmlns:dc="http://purl.org/dc/elements/1.1/"
   xmlns:cc="http://creativecommons.org/ns#"
   xmlns:rdf="http://www.w3.org/1999/02/22-rdf-syntax-ns#"
   xmlns:svg="http://www.w3.org/2000/svg"
   xmlns="http://www.w3.org/2000/svg"
   xmlns:sodipodi="http://sodipodi.sourceforge.net/DTD/sodipodi-0.dtd"
   xmlns:inkscape="http://www.inkscape.org/namespaces/inkscape"
   width="53.565895mm"
   height="71.67984mm"
   viewBox="0 0 53.565895 71.679841"
   version="1.1"
   id="svg106"
   inkscape:version="1.0.1 (3bc2e813f5, 2020-09-07)"
   sodipodi:docname="logo_small.svg">
  <defs
     id="defs100">
    <rect
       x="105.41919"
       y="104.94344"
       width="2.7646818"
       height="38.029842"
       id="rect622" />
  </defs>
  <sodipodi:namedview
     id="base"
     pagecolor="#ffffff"
     bordercolor="#666666"
     borderopacity="1.0"
     inkscape:pageopacity="0.0"
     inkscape:pageshadow="2"
     inkscape:zoom="0.98994949"
     inkscape:cx="206.95568"
     inkscape:cy="-98.980321"
     inkscape:document-units="mm"
     inkscape:current-layer="layer1"
     inkscape:document-rotation="0"
     showgrid="false"
     inkscape:window-width="3440"
     inkscape:window-height="1379"
     inkscape:window-x="0"
     inkscape:window-y="0"
     inkscape:window-maximized="1"
     fit-margin-top="0"
     fit-margin-left="0"
     fit-margin-right="0"
     fit-margin-bottom="0" />
  <metadata
     id="metadata103">
    <rdf:RDF>
      <cc:Work
         rdf:about="">
        <dc:format>image/svg+xml</dc:format>
        <dc:type
           rdf:resource="http://purl.org/dc/dcmitype/StillImage" />
        <dc:title></dc:title>
      </cc:Work>
    </rdf:RDF>
  </metadata>
  <g
     inkscape:label="Layer 1"
     inkscape:groupmode="layer"
     id="layer1"
     transform="translate(60.147258,16.724577)">
    <text
       xml:space="preserve"
       id="text620"
       style="font-style:normal;font-weight:normal;font-size:10.5833px;line-height:1.25;font-family:sans-serif;white-space:pre;shape-inside:url(#rect622);fill:#000000;fill-opacity:1;stroke:none;" />
    <g
       id="g1738"
       transform="matrix(0.10579479,0,0,0.10579479,-444.94285,54.946935)"
       style="stroke:#447d99;stroke-opacity:1">
      <rect
         style="fill:none;fill-opacity:1;stroke:#447d99;stroke-width:8.70279;stroke-linejoin:bevel;stroke-miterlimit:4;stroke-dasharray:none;stroke-opacity:1"
         id="rect1693"
         width="399.87805"
         height="327.33264"
         x="3690.9858"
         y="-642.5293"
         rx="77.769241"
         ry="58.443497" />
      <ellipse
         id="path838-1"
         cx="3965.6521"
         cy="-493.62033"
         rx="60.923668"
         ry="62.541649"
         style="fill:#fdf172;fill-opacity:1;stroke:#447d99;stroke-width:20.3489;stroke-miterlimit:4;stroke-dasharray:none;stroke-opacity:1" />
      <ellipse
         id="path838-1-0"
         cx="3797.71"
         cy="-483.73779"
         rx="46.323891"
         ry="47.554142"
         style="fill:none;stroke:#447d99;stroke-width:8.20704;stroke-miterlimit:4;stroke-dasharray:none;stroke-opacity:1" />
      <path
         style="fill:#447d99;fill-opacity:1;stroke:#447d99;stroke-width:1.30386;stroke-linejoin:bevel;stroke-miterlimit:4;stroke-dasharray:none;stroke-opacity:1"
         id="path1695"
         sodipodi:type="arc"
         sodipodi:cx="3896.0679"
         sodipodi:cy="642.16693"
         sodipodi:rx="34.176849"
         sodipodi:ry="34.638981"
         sodipodi:start="0"
         sodipodi:end="3.1278076"
         sodipodi:arc-type="slice"
         transform="scale(1,-1)"
         d="m 3930.2447,642.16693 a 34.176849,34.638981 0 0 1 -33.9413,34.63816 34.176849,34.638981 0 0 1 -34.4091,-34.16067 l 34.1736,-0.47749 z" />
      <path
         style="fill:#447d99;fill-opacity:1;stroke:#447d99;stroke-width:2.07437;stroke-linejoin:bevel;stroke-miterlimit:4;stroke-dasharray:none;stroke-opacity:1"
         id="path1695-4"
         sodipodi:type="arc"
         sodipodi:cx="476.65826"
         sodipodi:cy="-3693.3345"
         sodipodi:rx="54.37355"
         sodipodi:ry="55.108776"
         sodipodi:start="0"
         sodipodi:end="3.1278076"
         sodipodi:arc-type="slice"
         transform="matrix(0,-1,-1,0,0,0)"
         d="m 531.03181,-3693.3345 a 54.37355,55.108776 0 0 1 -53.99878,55.1075 54.37355,55.108776 0 0 1 -54.74315,-54.3478 l 54.36838,-0.7597 z" />
      <path
         style="fill:#447d99;fill-opacity:1;stroke:#447d99;stroke-width:2.07437;stroke-linejoin:bevel;stroke-miterlimit:4;stroke-dasharray:none;stroke-opacity:1"
         id="path1695-4-2"
         sodipodi:type="arc"
         sodipodi:cx="477.25781"
         sodipodi:cy="4087.3613"
         sodipodi:rx="54.37355"
         sodipodi:ry="55.108776"
         sodipodi:start="0"
         sodipodi:end="3.1278076"
         sodipodi:arc-type="slice"
         transform="rotate(-90)"
         d="m 531.63136,4087.3613 a 54.37355,55.108776 0 0 1 -53.99878,55.1075 54.37355,55.108776 0 0 1 -54.74315,-54.3478 l 54.36838,-0.7597 z" />
    </g>
    <rect
       style="fill:#ffffff;fill-opacity:1;stroke:none;stroke-width:2.07704;stroke-linejoin:bevel;stroke-miterlimit:4;stroke-dasharray:none;stroke-opacity:1"
       id="rect1915"
       width="4.9108167"
       height="5.974544"
       x="-36.323116"
       y="19.4793"
       rx="10.25451"
       ry="5.974544" />
    <g
       id="g1730"
       transform="matrix(0.06998953,-0.03188503,0.02485381,0.05455558,-45.259057,25.25208)">
      <g
         fill="#083863"
         id="g682"
         transform="matrix(1.0639363,0.61029296,-0.43014994,1.0892081,21.104261,-79.183219)"
         style="fill:#447d99;fill-opacity:1">
        <path
           d="m 319.05078,187.82812 h -0.67187 c -9.125,-0.043 -17.9375,3.3125 -24.71875,9.41407 -5.48829,-15.20313 -19.44141,-26.14063 -35.79297,-26.14063 -10.02735,0.0703 -19.59766,4.19141 -26.54297,11.42969 -6.37891,-12.92578 -19.17578,-21.70313 -33.90625,-21.70313 h -0.71094 c -7.87109,-0.13281 -15.5625,2.38672 -21.82812,7.15625 V 21.049736 c 0,-22.2617192 -17.33204,-40.378906 -38.41407,-40.378906 -21.0625,0 -38.300778,18.1015628 -38.312496,40.34375 l -0.171875,237.71589 c -15.595733,36.33859 -20.026195,62.74074 -18.733808,94.4178 1.292386,31.67706 2.345448,49.83618 9.573651,72.77751 9.398164,29.82849 46.445308,49.91016 79.445308,49.91016 h 98.14063 c 50.03125,0 90.77734,-43.42969 90.83203,-96.70703 0.0234,-24.15235 0.043,-42.10157 0.0625,-56.60157 0.0508,-38.25 0.0664,-52.38281 -0.0352,-94.61328 -0.0469,-22.20703 -17.1914,-40.08594 -38.21484,-40.08594 z m 22.25391,134.63282 c -0.0195,14.5 -0.043,32.49218 -0.0664,56.64453 -0.0469,44.46484 -33.61328,80.72265 -74.82812,80.72265 h -98.14063 c -27.01562,0 -60.37654,-12.40126 -67.62228,-39.19753 -7.245731,-26.79626 -10.466761,-89.26447 -0.912875,-134.50168 2.144535,2.61328 5.695315,3.59375 8.878905,2.45703 3.17969,-1.14063 5.30078,-4.15235 5.30469,-7.53125 L 114.0586,21.026299 c 0.008,-13.4296882 10.16016,-24.3554692 22.41407,-24.3554692 12.2539,0 22.40625,10.9375 22.40625,24.3789062 V 200.03906 c 0,0.30078 -0.0195,0.59766 -0.0195,0.90235 0,0.1289 0.0195,0.25781 0.0195,0.38672 v 39.31614 c 0,4.41797 3.58203,8 8,8 4.41796,0 8,-3.58203 8,-8 V 200.25 c 0,-13.05469 9.89843,-23.42187 21.82812,-23.42187 h 0.71094 c 12.2539,0 22.46094,10.68359 22.46094,24.12109 v 34.64427 c 0,4.42187 3.58203,7.99999 8,7.99999 4.41796,0 8,-3.57812 8,-8 v -24.22239 c 0,-13.4375 9.71093,-24.37109 22.03906,-24.37109 12.2539,0 21.96094,10.93359 21.96094,24.37109 v 22.07396 c 0,4.41797 3.58203,8 8,8 4.41796,0 8,-3.58203 8,-8 v -5.65599 c 0,-13.4375 10.24609,-23.96094 22.5,-23.96094 h 0.67187 c 12.21875,0 22.1875,10.69532 22.21875,24.09766 0.10156,42.20313 0.082,56.30469 0.0352,94.53516 z"
           id="path678"
           sodipodi:nodetypes="cccccsccsscczssscccscscsszccccsssssssssssssssssssssssscss"
           style="fill:#447d99;fill-opacity:1" />
      </g>
    </g>
  </g>
</svg>
