<?xml version="1.0" encoding="UTF-8" standalone="no"?>
<svg
   xmlns:dc="http://purl.org/dc/elements/1.1/"
   xmlns:cc="http://creativecommons.org/ns#"
   xmlns:rdf="http://www.w3.org/1999/02/22-rdf-syntax-ns#"
   xmlns:svg="http://www.w3.org/2000/svg"
   xmlns="http://www.w3.org/2000/svg"
   xmlns:sodipodi="http://sodipodi.sourceforge.net/DTD/sodipodi-0.dtd"
   xmlns:inkscape="http://www.inkscape.org/namespaces/inkscape"
   width="654.40906mm"
   height="194.07779mm"
   viewBox="0 0 654.40906 194.07779"
   version="1.1"
   id="svg106"
   inkscape:version="1.0.1 (3bc2e813f5, 2020-09-07)"
   sodipodi:docname="logo_2.svg">
  <defs
     id="defs100">
    <rect
       x="105.41919"
       y="104.94344"
       width="2.7646818"
       height="38.029842"
       id="rect622" />
  </defs>
  <sodipodi:namedview
     id="base"
     pagecolor="#ffffff"
     bordercolor="#666666"
     borderopacity="1.0"
     inkscape:pageopacity="0.0"
     inkscape:pageshadow="2"
     inkscape:zoom="0.49497475"
     inkscape:cx="448.36741"
     inkscape:cy="285.40306"
     inkscape:document-units="mm"
     inkscape:current-layer="layer1"
     inkscape:document-rotation="0"
     showgrid="false"
     inkscape:window-width="3440"
     inkscape:window-height="1379"
     inkscape:window-x="0"
     inkscape:window-y="0"
     inkscape:window-maximized="1"
     fit-margin-top="0"
     fit-margin-left="0"
     fit-margin-right="0"
     fit-margin-bottom="0" />
  <metadata
     id="metadata103">
    <rdf:RDF>
      <cc:Work
         rdf:about="">
        <dc:format>image/svg+xml</dc:format>
        <dc:type
           rdf:resource="http://purl.org/dc/dcmitype/StillImage" />
        <dc:title></dc:title>
      </cc:Work>
    </rdf:RDF>
  </metadata>
  <g
     inkscape:label="Layer 1"
     inkscape:groupmode="layer"
     id="layer1"
     transform="translate(45.085464,64.471275)">
    <text
       xml:space="preserve"
       style="font-style:normal;font-variant:normal;font-weight:bold;font-stretch:normal;font-size:50.8px;line-height:1.25;font-family:'Noto Serif Myanmar';-inkscape-font-specification:'Noto Serif Myanmar Bold';text-align:center;letter-spacing:-4.7625px;text-anchor:middle;fill:#447d99;fill-opacity:1;stroke:none;stroke-width:0.264583"
       x="297.65268"
       y="51.977634"
       id="text110"><tspan
         sodipodi:role="line"
         id="tspan108"
         x="297.65268"
         y="51.977634"
         style="font-style:normal;font-variant:normal;font-weight:bold;font-stretch:normal;font-size:50.8px;font-family:'Noto Serif Myanmar';-inkscape-font-specification:'Noto Serif Myanmar Bold';text-align:center;text-anchor:middle;fill:#447d99;fill-opacity:1;stroke-width:0.264583"> omputational</tspan><tspan
         sodipodi:role="line"
         x="295.27142"
         y="128.88718"
         style="font-style:normal;font-variant:normal;font-weight:bold;font-stretch:normal;font-size:50.8px;font-family:'Noto Serif Myanmar';-inkscape-font-specification:'Noto Serif Myanmar Bold';text-align:center;text-anchor:middle;fill:#447d99;fill-opacity:1;stroke-width:0.264583"
         id="tspan112">  uman-Robot Interacti    n</tspan></text>
    <g
       id="g582"
       transform="matrix(0.2645854,0,0,0.2645854,49.897042,-64.471327)">
      <path
         d="m 394.25,151.048 c 0,-6.236 -7.54,-9.359 -11.95,-4.95 l -64.211,64.211 v 41.168 l 64.211,64.211 c 4.41,4.41 11.95,1.287 11.95,-4.95 v -41.953 c 0,-1.857 -0.737,-3.637 -2.05,-4.95 l -27.993,-27.993 c -2.734,-2.734 -2.734,-7.166 0,-9.899 L 392.2,197.95 c 1.313,-1.313 2.05,-3.093 2.05,-4.95 z"
         fill="#a0ddf3"
         id="path526" />
      <path
         d="m 435.419,151.048 c 0,-6.236 7.54,-9.359 11.95,-4.95 l 64.211,64.211 v 41.168 l -64.211,64.211 c -4.41,4.41 -11.95,1.287 -11.95,-4.95 v -41.953 c 0,-1.857 0.737,-3.637 2.05,-4.95 l 27.993,-27.993 c 2.734,-2.734 2.734,-7.166 0,-9.899 L 437.469,197.95 c -1.313,-1.313 -2.05,-3.093 -2.05,-4.95 z"
         fill="#a0ddf3"
         id="path528" />
      <path
         d="M 185.332,30.884 H 391.955 V 92.636 H 185.332 Z"
         fill="#548eb5"
         id="path530" />
      <path
         d="m 445.789,62.456 v 113.68 c 0,11.46 -6.24,21.46 -15.51,26.79 -0.02,0 -0.04,0.02 -0.06,0.03 -4.51,2.58 -9.73,4.06 -15.3,4.06 -17.06,0 -30.88,-13.83 -30.88,-30.88 V 62.456 Z"
         fill="#548eb5"
         id="path532" />
      <path
         d="m 430.359,202.866 c -0.03,0.02 -0.05,0.03 -0.08,0.06 -0.02,0 -0.04,0.02 -0.06,0.03 -4.51,2.58 -9.73,4.06 -15.3,4.06 -17.06,0 -30.88,-13.83 -30.88,-30.88 V 62.456 h 30.88 v 113.68 c 0,11.42 6.2,21.4 15.44,26.73 z"
         fill="#447d99"
         id="path534" />
      <path
         d="m 445.793,62.46 v 76.285 c -9.561,3.911 -20.008,6.052 -30.958,6.052 -10.879,0 -21.284,-2.12 -30.794,-5.98 v -46.18 h -45.82 c -3.695,-9.345 -5.722,-19.534 -5.722,-30.176 0,-11.187 2.244,-21.85 6.299,-31.576 h 53.158 V 62.46 Z"
         fill="#447d99"
         id="path536" />
      <path
         d="m 223.999,74.903 -10.24,17.733 -29.579,51.234 -23.508,40.726 -24.381,42.228 -20.358,35.261 -42.702,-24.65 -37.525,-21.665 44.637,-77.324 23.6,-40.88 39.83,-68.977 41.559,23.991 z"
         fill="#548eb5"
         id="path538" />
      <path
         d="M 254.433,92.636 H 213.759 L 184.18,143.87 c -2.028,0.154 -4.076,0.237 -6.134,0.237 -14.378,0 -28.591,-3.818 -41.106,-11.043 -14.522,-8.378 -25.895,-20.697 -32.996,-35.497 l 39.83,-68.977 41.559,23.991 V 30.884 h 69.07 c 7.811,19.36 8.243,41.508 0.03,61.752 z"
         fill="#447d99"
         id="path540" />
      <path
         d="m 270.077,339.09 -59.54,70.953 -49.566,-41.59 -48.64,-40.818 -67.362,-56.524 28.262,-33.676 31.278,-37.278 31.782,26.667 36.68,30.784 48.847,40.982 z"
         fill="#548eb5"
         id="path542" />
      <path
         d="m 172.971,257.608 c -3.89,17.496 -12.639,34.128 -26.224,47.714 -9.942,9.942 -21.654,17.476 -34.417,22.313 L 44.969,271.111 73.231,237.435 35.706,215.77 80.343,138.446 c 25.102,0.679 48.589,10.776 66.404,28.602 5.414,5.414 10.055,11.311 13.925,17.548 l -24.382,42.228 z"
         fill="#447d99"
         id="path544" />
      <path
         d="m 270.077,339.09 -59.54,70.953 -49.566,-41.59 c 7.287,-32.173 30.485,-58.366 60.847,-69.862 z"
         fill="#447d99"
         id="path546" />
      <path
         d="m 414.92,182.443 c -4.263,0 -7.719,-3.456 -7.719,-7.719 0,-4.263 3.456,-7.719 7.719,-7.719 4.263,0 7.719,3.456 7.719,7.719 0,4.263 -3.456,7.719 -7.719,7.719 z"
         fill="#a0ddf3"
         id="path548" />
      <path
         d="m 132.189,290.766 c -11.12,11.12 -24.79,18.14 -39.13,21.05 -24.52,4.99 -51.01,-2.03 -70.03,-21.05 -30.15,-30.15 -30.15,-79.02 0,-109.17 19.02,-19.02 45.49,-26.03 70.01,-21.05 14.35,2.91 28.03,9.93 39.15,21.05 30.15,30.15 30.15,79.02 0,109.17 z"
         fill="#fdf172"
         id="path550" />
      <path
         d="m 93.059,311.816 c -24.52,4.99 -51.01,-2.03 -70.03,-21.05 -30.15,-30.15 -30.15,-79.02 0,-109.17 19.02,-19.02 45.49,-26.03 70.01,-21.05 -14.34,2.92 -28.02,9.94 -39.14,21.05 -30.14,30.15 -30.14,79.02 0,109.16 11.13,11.13 24.81,18.15 39.16,21.06 z"
         fill="#fde800"
         id="path552" />
      <path
         d="m 103.079,261.656 c -2.96,2.96 -6.35,5.35 -10.03,7.09 -4.76,2.27 -10.01,3.46 -15.44,3.46 -9.62,0 -18.67,-3.75 -25.47,-10.55 -6.8,-6.81 -10.55,-15.85 -10.55,-25.48 0,-9.62 3.75,-18.66 10.55,-25.47 6.8,-6.8 15.85,-10.55 25.47,-10.55 5.41,0 10.64,1.19 15.39,3.43 0.02,0.01 0.04,0.02 0.06,0.03 3.68,1.75 7.06,4.13 10.02,7.09 14.05,14.05 14.05,36.9 0,50.95 z"
         fill="#548eb5"
         id="path554" />
      <path
         d="m 83.019,261.656 c 2.96,2.96 6.35,5.35 10.03,7.09 -4.76,2.27 -10.01,3.46 -15.44,3.46 -9.62,0 -18.67,-3.75 -25.47,-10.55 -6.8,-6.81 -10.55,-15.85 -10.55,-25.48 0,-9.62 3.75,-18.66 10.55,-25.47 6.8,-6.8 15.85,-10.55 25.47,-10.55 5.41,0 10.64,1.19 15.39,3.43 0.02,0.01 0.04,0.02 0.06,0.03 -3.68,1.74 -7.08,4.13 -10.04,7.09 -6.81,6.8 -10.56,15.85 -10.56,25.47 0,9.63 3.75,18.67 10.56,25.48 z"
         fill="#447d99"
         id="path556" />
      <path
         d="m 231.589,92.636 c -8.64,14.95 -22.58,24.93 -38.08,28.91 -15.11,3.9 -31.7,2.11 -46.28,-6.31 -29.53,-17.05 -39.65,-54.82 -22.6,-84.35 14.19,-24.59 42.74,-35.72 68.94,-28.92 5.28,1.36 10.46,3.45 15.41,6.31 29.54,17.06 39.66,54.82 22.61,84.36 z"
         fill="#fdf172"
         id="path558" />
      <path
         d="m 178.109,115.236 c 4.94,2.86 10.13,4.95 15.4,6.31 -15.11,3.9 -31.7,2.11 -46.28,-6.31 -29.53,-17.05 -39.65,-54.82 -22.6,-84.35 14.19,-24.59 42.74,-35.72 68.94,-28.92 -15.49,3.99 -29.44,13.96 -38.06,28.92 -17.06,29.54 -6.94,67.3 22.6,84.35 z"
         fill="#fde800"
         id="path560" />
      <circle
         cx="178.10699"
         cy="61.757999"
         fill="#548eb5"
         r="20.584"
         id="circle562" />
      <path
         d="m 476.589,62.456 c 0,28.83 -19.75,53.04 -46.45,59.85 -4.89,1.25 -10.02,1.91 -15.3,1.91 -34.11,0 -61.76,-27.65 -61.76,-61.76 0,-34.1 27.65,-61.75 61.76,-61.75 5.3,0 10.44,0.67 15.34,1.92 26.68,6.82 46.41,31.03 46.41,59.83 z"
         fill="#fdf172"
         id="path564" />
      <path
         d="m 430.269,122.266 c -0.04,0.01 -0.09,0.02 -0.13,0.04 -4.89,1.25 -10.02,1.91 -15.3,1.91 -34.11,0 -61.76,-27.65 -61.76,-61.76 0,-34.1 27.65,-61.75 61.76,-61.75 5.3,0 10.44,0.67 15.34,1.92 0.03,0.01 0.06,0.02 0.09,0.03 -26.63,6.85 -46.31,31.03 -46.31,59.8 0,28.78 19.68,52.96 46.31,59.81 z"
         fill="#fde800"
         id="path566" />
      <circle
         cx="414.83401"
         cy="62.459999"
         fill="#548eb5"
         r="20.584"
         id="circle568" />
      <path
         d="m 256.337,312.88 c -42.631,0 -77.19,34.559 -77.19,77.19 v 90.758 H 333.528 V 390.07 c -0.001,-42.631 -34.56,-77.19 -77.191,-77.19 z"
         fill="#fdf172"
         id="path570" />
      <path
         d="m 271.775,314.42 c -35.24,7.153 -61.752,38.307 -61.752,75.647 v 90.762 h -30.876 v -90.762 c 0,-42.63 34.561,-77.19 77.19,-77.19 5.29,-0.001 10.457,0.534 15.438,1.543 z"
         fill="#fde800"
         id="path572" />
      <path
         d="m 292.359,387.966 c 0,14.37 -8.41,26.77 -20.58,32.55 -4.68,2.23 -9.92,3.47 -15.44,3.47 -19.9,0 -36.02,-16.12 -36.02,-36.02 0,-19.89 16.12,-36.02 36.02,-36.02 5.52,0 10.76,1.24 15.44,3.47 12.17,5.79 20.58,18.19 20.58,32.55 z"
         fill="#548eb5"
         id="path574" />
      <path
         d="m 271.779,420.516 c -4.68,2.23 -9.92,3.47 -15.44,3.47 -19.9,0 -36.02,-16.12 -36.02,-36.02 0,-19.89 16.12,-36.02 36.02,-36.02 5.52,0 10.76,1.24 15.44,3.47 -12.17,5.78 -20.59,18.18 -20.59,32.55 0,14.37 8.42,26.77 20.59,32.55 z"
         fill="#447d99"
         id="path576" />
      <path
         d="M 384.988,511.996 H 127.686 v -34.168 c 0,-3.866 3.134,-7 7,-7 h 243.301 c 3.866,0 7,3.134 7,7 v 34.168 z"
         fill="#548eb5"
         id="path578" />
      <path
         d="m 184.689,470.826 c -3.87,0 -7,3.14 -7,7 v 34.17 h -50 v -34.17 c 0,-3.86 3.13,-7 7,-7 z"
         fill="#447d99"
         id="path580" />
    </g>
    <text
       xml:space="preserve"
       id="text620"
       style="font-style:normal;font-weight:normal;font-size:10.5833px;line-height:1.25;font-family:sans-serif;white-space:pre;shape-inside:url(#rect622);fill:#000000;fill-opacity:1;stroke:none;" />
    <g
       id="g1730"
       transform="matrix(0.19263949,0,0,0.19263949,-46.406553,36.722579)">
      <g
         fill="#083863"
         id="g682"
         transform="translate(-72.177199,4.6495246)"
         style="fill:#447d99;fill-opacity:1">
        <path
           d="m 319.05078,187.82812 h -0.67187 c -9.125,-0.043 -17.9375,3.3125 -24.71875,9.41407 -5.48829,-15.20313 -19.44141,-26.14063 -35.79297,-26.14063 -10.02735,0.0703 -19.59766,4.19141 -26.54297,11.42969 -6.37891,-12.92578 -19.17578,-21.70313 -33.90625,-21.70313 h -0.71094 c -7.87109,-0.13281 -15.5625,2.38672 -21.82812,7.15625 V 21.049736 c 0,-22.2617192 -17.33204,-40.378906 -38.41407,-40.378906 -21.0625,0 -38.300778,18.1015628 -38.312496,40.34375 l -0.171875,237.71589 c -15.595733,36.33859 -20.026195,62.74074 -18.733808,94.4178 1.292386,31.67706 2.345448,49.83618 9.573651,72.77751 9.398164,29.82849 46.445308,49.91016 79.445308,49.91016 h 98.14063 c 50.03125,0 90.77734,-43.42969 90.83203,-96.70703 0.0234,-24.15235 0.043,-42.10157 0.0625,-56.60157 0.0508,-38.25 0.0664,-52.38281 -0.0352,-94.61328 -0.0469,-22.20703 -17.1914,-40.08594 -38.21484,-40.08594 z m 22.25391,134.63282 c -0.0195,14.5 -0.043,32.49218 -0.0664,56.64453 -0.0469,44.46484 -33.61328,80.72265 -74.82812,80.72265 h -98.14063 c -27.01562,0 -60.37654,-12.40126 -67.62228,-39.19753 -7.245731,-26.79626 -10.466761,-89.26447 -0.912875,-134.50168 2.144535,2.61328 5.695315,3.59375 8.878905,2.45703 3.17969,-1.14063 5.30078,-4.15235 5.30469,-7.53125 L 114.0586,21.026299 c 0.008,-13.4296882 10.16016,-24.3554692 22.41407,-24.3554692 12.2539,0 22.40625,10.9375 22.40625,24.3789062 V 200.03906 c 0,0.30078 -0.0195,0.59766 -0.0195,0.90235 0,0.1289 0.0195,0.25781 0.0195,0.38672 v 39.31614 c 0,4.41797 3.58203,8 8,8 4.41796,0 8,-3.58203 8,-8 V 200.25 c 0,-13.05469 9.89843,-23.42187 21.82812,-23.42187 h 0.71094 c 12.2539,0 22.46094,10.68359 22.46094,24.12109 v 34.64427 c 0,4.42187 3.58203,7.99999 8,7.99999 4.41796,0 8,-3.57812 8,-8 v -24.22239 c 0,-13.4375 9.71093,-24.37109 22.03906,-24.37109 12.2539,0 21.96094,10.93359 21.96094,24.37109 v 22.07396 c 0,4.41797 3.58203,8 8,8 4.41796,0 8,-3.58203 8,-8 v -5.65599 c 0,-13.4375 10.24609,-23.96094 22.5,-23.96094 h 0.67187 c 12.21875,0 22.1875,10.69532 22.21875,24.09766 0.10156,42.20313 0.082,56.30469 0.0352,94.53516 z"
           id="path678"
           sodipodi:nodetypes="cccccsccsscczssscccscscsszccccsssssssssssssssssssssssscss"
           style="fill:#447d99;fill-opacity:1" />
      </g>
    </g>
    <g
       id="g1738"
       transform="matrix(0.10579479,0,0,0.10579479,141.42353,161.3912)"
       style="stroke:#447d99;stroke-opacity:1">
      <rect
         style="fill:#fdf172;fill-opacity:1;stroke:#447d99;stroke-width:8.70279;stroke-linejoin:bevel;stroke-miterlimit:4;stroke-dasharray:none;stroke-opacity:1"
         id="rect1693"
         width="399.87805"
         height="327.33264"
         x="3690.9858"
         y="-642.5293"
         rx="77.769241"
         ry="58.443497" />
      <ellipse
         id="path838-1"
         cx="3965.6521"
         cy="-493.62033"
         rx="60.923668"
         ry="62.541649"
         style="fill:#fdf172;fill-opacity:1;stroke:#447d99;stroke-width:20.3489;stroke-miterlimit:4;stroke-dasharray:none;stroke-opacity:1" />
      <ellipse
         id="path838-1-0"
         cx="3797.71"
         cy="-483.73779"
         rx="46.323891"
         ry="47.554142"
         style="fill:none;stroke:#447d99;stroke-width:8.20704;stroke-miterlimit:4;stroke-dasharray:none;stroke-opacity:1" />
      <path
         style="fill:#447d99;fill-opacity:1;stroke:#447d99;stroke-width:1.30386;stroke-linejoin:bevel;stroke-miterlimit:4;stroke-dasharray:none;stroke-opacity:1"
         id="path1695"
         sodipodi:type="arc"
         sodipodi:cx="3896.0679"
         sodipodi:cy="642.16693"
         sodipodi:rx="34.176849"
         sodipodi:ry="34.638981"
         sodipodi:start="0"
         sodipodi:end="3.1278076"
         sodipodi:arc-type="slice"
         transform="scale(1,-1)"
         d="m 3930.2447,642.16693 a 34.176849,34.638981 0 0 1 -33.9413,34.63816 34.176849,34.638981 0 0 1 -34.4091,-34.16067 l 34.1736,-0.47749 z" />
      <path
         style="fill:#447d99;fill-opacity:1;stroke:#447d99;stroke-width:2.07437;stroke-linejoin:bevel;stroke-miterlimit:4;stroke-dasharray:none;stroke-opacity:1"
         id="path1695-4"
         sodipodi:type="arc"
         sodipodi:cx="476.65826"
         sodipodi:cy="-3693.3345"
         sodipodi:rx="54.37355"
         sodipodi:ry="55.108776"
         sodipodi:start="0"
         sodipodi:end="3.1278076"
         sodipodi:arc-type="slice"
         transform="matrix(0,-1,-1,0,0,0)"
         d="m 531.03181,-3693.3345 a 54.37355,55.108776 0 0 1 -53.99878,55.1075 54.37355,55.108776 0 0 1 -54.74315,-54.3478 l 54.36838,-0.7597 z" />
      <path
         style="fill:#447d99;fill-opacity:1;stroke:#447d99;stroke-width:2.07437;stroke-linejoin:bevel;stroke-miterlimit:4;stroke-dasharray:none;stroke-opacity:1"
         id="path1695-4-2"
         sodipodi:type="arc"
         sodipodi:cx="477.25781"
         sodipodi:cy="4087.3613"
         sodipodi:rx="54.37355"
         sodipodi:ry="55.108776"
         sodipodi:start="0"
         sodipodi:end="3.1278076"
         sodipodi:arc-type="slice"
         transform="rotate(-90)"
         d="m 531.63136,4087.3613 a 54.37355,55.108776 0 0 1 -53.99878,55.1075 54.37355,55.108776 0 0 1 -54.74315,-54.3478 l 54.36838,-0.7597 z" />
    </g>
  </g>
</svg>
